<svg width="857" height="398" viewBox="0 0 857 398" fill="none" xmlns="http://www.w3.org/2000/svg">
<path d="M103.593 311.547H5.97852L49.7389 104.729H148.468L103.593 311.547ZM160.812 41.7135C160.812 49.099 159.317 55.5052 156.322 60.974C153.333 66.4896 149.312 71.1667 144.359 75C139.354 78.7396 133.604 81.6354 127.15 83.599C120.796 85.4688 114.249 86.4063 107.52 86.4063C94.6608 86.4063 83.8639 83.4115 75.166 77.4271C66.5671 71.3542 62.265 61.6771 62.265 48.4427C62.265 41.4792 63.666 35.1667 66.5671 29.5573C69.5566 23.9479 73.4837 19.276 78.3483 15.5313C83.3014 11.7917 89.0983 8.98958 95.7389 7.11979C102.327 5.15625 109.109 4.125 116.119 4.125C128.697 4.125 139.307 7.21354 147.911 13.2917C156.51 19.4115 160.812 28.9063 160.812 41.7135Z" fill="white"/>
<path d="M193.984 392.332H96L156.583 104.728H234.938L243.536 135.582H246.531C257.984 123.384 270.839 114.639 285.052 109.405C299.359 104.077 313.474 101.363 327.313 101.363C338.531 101.363 347.88 103.046 355.365 106.41C362.938 109.78 369.016 114.405 373.5 120.249C377.99 125.999 381.167 132.874 383.036 140.822C385 148.816 386.031 157.275 386.031 166.254C386.031 170.738 385.656 177.473 384.906 186.447C384.255 195.421 382.849 205.473 380.609 216.556C378.365 227.681 375.089 239.087 370.885 250.775C366.771 262.509 361.255 273.165 354.427 282.749C347.557 292.379 338.906 300.233 328.432 306.311C318.057 312.389 305.667 315.473 291.224 315.473C283.229 315.473 275.422 314.447 267.849 312.483C260.37 310.613 253.542 308.087 247.464 304.816C241.339 301.592 235.917 297.853 231.198 293.598C226.568 289.249 223.156 284.806 220.911 280.322H218.109L193.984 392.332ZM245.036 268.728C252.75 268.728 259.151 264.707 264.297 256.572C269.391 248.342 273.505 238.712 276.635 227.587C279.865 216.509 282.245 205.473 283.745 194.488C285.24 183.41 285.984 175.134 285.984 169.618C285.984 163.259 284.911 158.025 282.807 153.91C280.656 149.702 276.87 147.551 271.401 147.551C265.417 147.551 259.667 149.749 254.198 154.098C248.682 158.353 244.708 162.092 242.229 165.316L223.344 253.395C225.958 256.9 229 260.311 232.505 263.676C235.964 267.04 240.172 268.728 245.036 268.728Z" fill="white"/>
<path d="M658.182 392.332H560.197L620.786 104.728H699.135L707.739 135.582H710.729C722.182 123.384 735.041 114.639 749.249 109.405C763.557 104.077 777.676 101.363 791.51 101.363C802.734 101.363 812.083 103.046 819.562 106.41C827.135 109.78 833.213 114.405 837.702 120.249C842.187 125.999 845.369 132.874 847.239 140.822C849.202 148.816 850.229 157.275 850.229 166.254C850.229 170.738 849.854 177.473 849.109 186.447C848.452 195.421 847.051 205.473 844.807 216.556C842.562 227.681 839.291 239.087 835.083 250.775C830.968 262.509 825.452 273.165 818.624 282.749C811.755 292.379 803.104 300.233 792.635 306.311C782.255 312.389 769.869 315.473 755.421 315.473C747.426 315.473 739.619 314.447 732.046 312.483C724.567 310.613 717.744 308.087 711.666 304.816C705.541 301.592 700.119 297.853 695.395 293.598C690.77 289.249 687.354 284.806 685.109 280.322H682.307L658.182 392.332ZM709.234 268.728C716.947 268.728 723.354 264.707 728.494 256.572C733.588 248.342 737.702 238.712 740.838 227.587C744.062 216.509 746.447 205.473 747.942 194.488C749.437 183.41 750.187 175.134 750.187 169.618C750.187 163.259 749.109 158.025 747.005 153.91C744.859 149.702 741.072 147.551 735.598 147.551C729.614 147.551 723.864 149.749 718.395 154.098C712.88 158.353 708.906 162.092 706.426 165.316L687.541 253.395C690.161 256.9 693.197 260.311 696.702 263.676C700.166 267.04 704.369 268.728 709.234 268.728Z" fill="white"/>
<mask id="mask0_5182_53" style="mask-type:luminance" maskUnits="userSpaceOnUse" x="380" y="107" width="220" height="220">
<path d="M380.697 107.562H599.437V326.255H380.697V107.562Z" fill="white"/>
</mask>
<g mask="url(#mask0_5182_53)">
<path d="M489.765 107.469C550.025 107.469 598.926 156.365 598.926 216.625C598.926 276.839 550.025 325.74 489.765 325.74C429.551 325.74 380.65 276.839 380.65 216.625C380.65 156.365 429.551 107.469 489.765 107.469ZM434.463 197.599C434.463 208.12 442.968 216.625 453.489 216.625C463.958 216.625 472.468 208.12 472.468 197.599C472.468 187.125 463.958 178.573 453.489 178.573C442.968 178.573 434.463 187.125 434.463 197.599ZM497.9 169.271C497.9 179.786 506.406 188.297 516.926 188.297C527.4 188.297 535.906 179.786 535.906 169.271C535.906 158.797 527.4 150.286 516.926 150.286C506.406 150.286 497.9 158.797 497.9 169.271ZM448.161 265.948C448.161 276.464 456.666 284.974 467.14 284.974C477.656 284.974 486.166 276.464 486.166 265.948C486.166 255.474 477.656 246.964 467.14 246.964C456.666 246.964 448.161 255.474 448.161 265.948ZM516.926 239.531C516.926 250.052 525.437 258.563 535.906 258.563C546.426 258.563 554.932 250.052 554.932 239.531C554.932 229.063 546.426 220.552 535.906 220.552C525.437 220.552 516.926 229.063 516.926 239.531ZM393.041 228.922C394.348 239.297 398.885 247.339 403.187 246.828C407.536 246.266 410.01 237.38 408.702 226.958C407.442 216.578 402.906 208.536 398.557 209.052C394.255 209.615 391.781 218.495 393.041 228.922ZM586.489 197.74C582.187 197.224 577.609 205.219 576.343 215.646C575.083 226.068 577.515 234.953 581.859 235.464C586.161 236.026 590.744 227.984 592.005 217.563C593.27 207.135 590.791 198.255 586.489 197.74ZM426.374 290.63C433.385 298.438 441.708 302.411 444.932 299.464C448.161 296.568 445.119 287.87 438.109 280.063C431.046 272.302 422.729 268.328 419.499 271.229C416.275 274.125 419.359 282.823 426.374 290.63ZM512.249 312.37C522.348 309.656 529.687 304.047 528.567 299.839C527.447 295.63 518.281 294.417 508.14 297.13C497.994 299.839 490.702 305.495 491.822 309.703C492.942 313.911 502.109 315.078 512.249 312.37ZM569.426 277.911C576.718 270.339 580.083 261.786 576.952 258.745C573.822 255.708 565.406 259.401 558.114 266.927C550.817 274.5 547.452 283.057 550.588 286.094C553.718 289.135 562.182 285.443 569.426 277.911ZM409.077 160.104C403.791 169.177 402.624 178.339 406.364 180.49C410.15 182.688 417.489 177.078 422.729 167.958C427.963 158.891 429.176 149.729 425.39 147.578C421.604 145.38 414.312 150.99 409.077 160.104ZM479.525 133.693C489.671 130.979 497.01 125.37 495.843 121.167C494.718 116.958 485.604 115.74 475.458 118.453C465.317 121.167 458.02 126.776 459.145 130.979C460.265 135.188 469.432 136.406 479.525 133.693ZM548.9 155.667C556.057 163.333 564.421 167.167 567.604 164.172C570.781 161.229 567.604 152.578 560.406 144.911C553.249 137.245 544.885 133.411 541.702 136.406C538.525 139.349 541.749 148 548.9 155.667Z" fill="white"/>
</g>
</svg>
