<svg version="1.2" preserveAspectRatio="xMidYMid meet" height="398" viewBox="0 0 642.75 298.499991" zoomAndPan="magnify" width="857" xmlns:xlink="http://www.w3.org/1999/xlink" xmlns="http://www.w3.org/2000/svg"><defs><clipPath id="2b7855e800"><path d="M 285.523438 80.671875 L 449.578125 80.671875 L 449.578125 244.691406 L 285.523438 244.691406 Z M 285.523438 80.671875"></path></clipPath></defs><g id="89c6ecf8b3"><path d="M 77.695312 233.660156 L 4.484375 233.660156 L 37.304688 78.546875 L 111.351562 78.546875 Z M 120.609375 31.285156 C 120.609375 36.824219 119.488281 41.628906 117.242188 45.730469 C 115 49.867188 111.984375 53.375 108.269531 56.25 C 104.515625 59.054688 100.203125 61.226562 95.363281 62.699219 C 90.597656 64.101562 85.6875 64.804688 80.640625 64.804688 C 70.996094 64.804688 62.898438 62.558594 56.375 58.070312 C 49.925781 53.515625 46.699219 46.257812 46.699219 36.332031 C 46.699219 31.109375 47.75 26.375 49.925781 22.167969 C 52.167969 17.960938 55.113281 14.457031 58.761719 11.648438 C 62.476562 8.84375 66.824219 6.742188 71.804688 5.339844 C 76.746094 3.867188 81.832031 3.09375 87.089844 3.09375 C 96.523438 3.09375 104.480469 5.410156 110.933594 9.96875 C 117.382812 14.558594 120.609375 21.679688 120.609375 31.285156 Z M 120.609375 31.285156" style="stroke:none;fill-rule:nonzero;fill:#222222;fill-opacity:1;"></path><path d="M 145.488281 294.25 L 72 294.25 L 117.4375 78.546875 L 176.203125 78.546875 L 182.652344 101.6875 L 184.898438 101.6875 C 193.488281 92.539062 203.128906 85.980469 213.789062 82.054688 C 224.519531 78.058594 235.105469 76.023438 245.484375 76.023438 C 253.898438 76.023438 260.910156 77.285156 266.523438 79.808594 C 272.203125 82.335938 276.761719 85.804688 280.125 90.1875 C 283.492188 94.5 285.875 99.65625 287.277344 105.617188 C 288.75 111.613281 289.523438 117.957031 289.523438 124.691406 C 289.523438 128.054688 289.242188 133.105469 288.679688 139.835938 C 288.191406 146.566406 287.136719 154.105469 285.457031 162.417969 C 283.773438 170.761719 281.316406 179.316406 278.164062 188.082031 C 275.078125 196.882812 270.941406 204.875 265.820312 212.0625 C 260.667969 219.285156 254.179688 225.175781 246.324219 229.734375 C 238.542969 234.292969 229.25 236.605469 218.417969 236.605469 C 212.421875 236.605469 206.566406 235.835938 200.886719 234.363281 C 195.277344 232.960938 190.15625 231.066406 185.597656 228.613281 C 181.003906 226.195312 176.9375 223.390625 173.398438 220.199219 C 169.925781 216.9375 167.367188 213.605469 165.683594 210.242188 L 163.582031 210.242188 Z M 183.777344 201.546875 C 189.5625 201.546875 194.363281 198.53125 198.222656 192.429688 C 202.042969 186.257812 205.128906 179.035156 207.476562 170.691406 C 209.898438 162.382812 211.683594 154.105469 212.808594 145.867188 C 213.929688 137.558594 214.488281 131.351562 214.488281 127.214844 C 214.488281 122.445312 213.683594 118.519531 212.105469 115.433594 C 210.492188 112.277344 207.652344 110.664062 203.550781 110.664062 C 199.0625 110.664062 194.75 112.3125 190.648438 115.574219 C 186.511719 118.765625 183.53125 121.570312 181.671875 123.988281 L 167.507812 190.046875 C 169.46875 192.675781 171.75 195.234375 174.378906 197.757812 C 176.972656 200.28125 180.128906 201.546875 183.777344 201.546875 Z M 183.777344 201.546875" style="stroke:none;fill-rule:nonzero;fill:#222222;fill-opacity:1;"></path><path d="M 493.636719 294.25 L 420.148438 294.25 L 465.589844 78.546875 L 524.351562 78.546875 L 530.804688 101.6875 L 533.046875 101.6875 C 541.636719 92.539062 551.28125 85.980469 561.9375 82.054688 C 572.667969 78.058594 583.257812 76.023438 593.632812 76.023438 C 602.050781 76.023438 609.0625 77.285156 614.671875 79.808594 C 620.351562 82.335938 624.910156 85.804688 628.277344 90.1875 C 631.640625 94.5 634.027344 99.65625 635.429688 105.617188 C 636.902344 111.613281 637.671875 117.957031 637.671875 124.691406 C 637.671875 128.054688 637.390625 133.105469 636.832031 139.835938 C 636.339844 146.566406 635.289062 154.105469 633.605469 162.417969 C 631.921875 170.761719 629.46875 179.316406 626.3125 188.082031 C 623.226562 196.882812 619.089844 204.875 613.96875 212.0625 C 608.816406 219.285156 602.328125 225.175781 594.476562 229.734375 C 586.691406 234.292969 577.402344 236.605469 566.566406 236.605469 C 560.570312 236.605469 554.714844 235.835938 549.035156 234.363281 C 543.425781 232.960938 538.308594 231.066406 533.75 228.613281 C 529.15625 226.195312 525.089844 223.390625 521.546875 220.199219 C 518.078125 216.9375 515.515625 213.605469 513.832031 210.242188 L 511.730469 210.242188 Z M 531.925781 201.546875 C 537.710938 201.546875 542.515625 198.53125 546.371094 192.429688 C 550.191406 186.257812 553.277344 179.035156 555.628906 170.691406 C 558.046875 162.382812 559.835938 154.105469 560.957031 145.867188 C 562.078125 137.558594 562.640625 131.351562 562.640625 127.214844 C 562.640625 122.445312 561.832031 118.519531 560.253906 115.433594 C 558.644531 112.277344 555.804688 110.664062 551.699219 110.664062 C 547.210938 110.664062 542.898438 112.3125 538.796875 115.574219 C 534.660156 118.765625 531.679688 121.570312 529.820312 123.988281 L 515.65625 190.046875 C 517.621094 192.675781 519.898438 195.234375 522.527344 197.757812 C 525.125 200.28125 528.277344 201.546875 531.925781 201.546875 Z M 531.925781 201.546875" style="stroke:none;fill-rule:nonzero;fill:#222222;fill-opacity:1;"></path><g clip-path="url(#2b7855e800)" clip-rule="nonzero"><path d="M 367.324219 80.601562 C 412.519531 80.601562 449.195312 117.273438 449.195312 162.46875 C 449.195312 207.628906 412.519531 244.304688 367.324219 244.304688 C 322.164062 244.304688 285.488281 207.628906 285.488281 162.46875 C 285.488281 117.273438 322.164062 80.601562 367.324219 80.601562 Z M 325.847656 148.199219 C 325.847656 156.089844 332.226562 162.46875 340.117188 162.46875 C 347.96875 162.46875 354.351562 156.089844 354.351562 148.199219 C 354.351562 140.34375 347.96875 133.929688 340.117188 133.929688 C 332.226562 133.929688 325.847656 140.34375 325.847656 148.199219 Z M 373.425781 126.953125 C 373.425781 134.839844 379.804688 141.222656 387.695312 141.222656 C 395.550781 141.222656 401.929688 134.839844 401.929688 126.953125 C 401.929688 119.097656 395.550781 112.714844 387.695312 112.714844 C 379.804688 112.714844 373.425781 119.097656 373.425781 126.953125 Z M 336.121094 199.460938 C 336.121094 207.347656 342.5 213.730469 350.355469 213.730469 C 358.242188 213.730469 364.625 207.347656 364.625 199.460938 C 364.625 191.605469 358.242188 185.222656 350.355469 185.222656 C 342.5 185.222656 336.121094 191.605469 336.121094 199.460938 Z M 387.695312 179.648438 C 387.695312 187.539062 394.078125 193.921875 401.929688 193.921875 C 409.820312 193.921875 416.199219 187.539062 416.199219 179.648438 C 416.199219 171.796875 409.820312 165.414062 401.929688 165.414062 C 394.078125 165.414062 387.695312 171.796875 387.695312 179.648438 Z M 294.78125 171.691406 C 295.761719 179.472656 299.164062 185.503906 302.390625 185.121094 C 305.652344 184.699219 307.507812 178.035156 306.527344 170.21875 C 305.582031 162.433594 302.179688 156.402344 298.917969 156.789062 C 295.691406 157.210938 293.835938 163.871094 294.78125 171.691406 Z M 439.867188 148.304688 C 436.640625 147.917969 433.207031 153.914062 432.257812 161.734375 C 431.3125 169.550781 433.136719 176.214844 436.394531 176.597656 C 439.621094 177.019531 443.058594 170.988281 444.003906 163.171875 C 444.953125 155.351562 443.09375 148.691406 439.867188 148.304688 Z M 319.78125 217.972656 C 325.039062 223.828125 331.28125 226.808594 333.699219 224.597656 C 336.121094 222.425781 333.839844 215.902344 328.582031 210.046875 C 323.285156 204.226562 317.046875 201.246094 314.625 203.421875 C 312.207031 205.59375 314.519531 212.117188 319.78125 217.972656 Z M 384.1875 234.277344 C 391.761719 232.242188 397.265625 228.035156 396.425781 224.878906 C 395.585938 221.722656 388.710938 220.8125 381.105469 222.847656 C 373.496094 224.878906 368.027344 229.121094 368.867188 232.277344 C 369.707031 235.433594 376.582031 236.308594 384.1875 234.277344 Z M 427.070312 208.433594 C 432.539062 202.753906 435.0625 196.339844 432.714844 194.058594 C 430.367188 191.78125 424.054688 194.550781 418.585938 200.195312 C 413.113281 205.875 410.589844 212.292969 412.941406 214.570312 C 415.289062 216.851562 421.636719 214.082031 427.070312 208.433594 Z M 306.808594 120.078125 C 302.84375 126.882812 301.96875 133.753906 304.773438 135.367188 C 307.613281 137.015625 313.117188 132.808594 317.046875 125.96875 C 320.972656 119.167969 321.882812 112.296875 319.042969 110.683594 C 316.203125 109.035156 310.734375 113.242188 306.808594 120.078125 Z M 359.644531 100.269531 C 367.253906 98.234375 372.757812 94.027344 371.882812 90.875 C 371.039062 87.71875 364.203125 86.804688 356.59375 88.839844 C 348.988281 90.875 343.515625 95.082031 344.359375 98.234375 C 345.199219 101.390625 352.074219 102.304688 359.644531 100.269531 Z M 411.675781 116.75 C 417.042969 122.5 423.316406 125.375 425.703125 123.128906 C 428.085938 120.921875 425.703125 114.433594 420.304688 108.683594 C 414.9375 102.933594 408.664062 100.058594 406.277344 102.304688 C 403.894531 104.511719 406.3125 111 411.675781 116.75 Z M 411.675781 116.75" style="stroke:none;fill-rule:nonzero;fill:#222222;fill-opacity:1;"></path></g></g></svg>